PathFileType	4	(X/Y/Z)	 s08c0201.trc
DataRate	CameraRate	NumFrames	NumMarkers	Units	OrigDataRate	OrigDataStartFrame	OrigNumFrames
200	200	5	50	mm	200	1751	2000
Frame#	Time	racr			lacr			c7			jug			rlel			rdr			llel			ldr			s2			lic			ric			lasi			rasi			rpsi			lpsi			rgt			lgt			rth1			rth2			rth3			rth4			rlfc			rmfc			rsh1			rsh2			rsh3			rsh4			rlmal			rmmal			rcal			rtoe			rmt5			lth1			lth2			lth4			lth3			llfc			lmfc			llmal			lmmal			lcal			lmt5			lsh1			lsh2			lsh3			lsh4			ltoe			SBIKE			LBIKE			RBIKE			
		X1	Y1	Z1	X2	Y2	Z2	X3	Y3	Z3	X4	Y4	Z4	X5	Y5	Z5	X6	Y6	Z6	X7	Y7	Z7	X8	Y8	Z8	X9	Y9	Z9	X10	Y10	Z10	X11	Y11	Z11	X12	Y12	Z12	X13	Y13	Z13	X14	Y14	Z14	X15	Y15	Z15	X16	Y16	Z16	X17	Y17	Z17	X18	Y18	Z18	X19	Y19	Z19	X20	Y20	Z20	X21	Y21	Z21	X22	Y22	Z22	X23	Y23	Z23	X24	Y24	Z24	X25	Y25	Z25	X26	Y26	Z26	X27	Y27	Z27	X28	Y28	Z28	X29	Y29	Z29	X30	Y30	Z30	X31	Y31	Z31	X32	Y32	Z32	X33	Y33	Z33	X34	Y34	Z34	X35	Y35	Z35	X36	Y36	Z36	X37	Y37	Z37	X38	Y38	Z38	X39	Y39	Z39	X40	Y40	Z40	X41	Y41	Z41	X42	Y42	Z42	X43	Y43	Z43	X44	Y44	Z44	X45	Y45	Z45	X46	Y46	Z46	X47	Y47	Z47	X48	Y48	Z48	X49	Y49	Z49	X50	Y50	Z50	
1751	8.7550	521.718739	1397.065075	-42.057147	535.368506	1406.297229	-418.764923	501.920977	1481.736051	-221.898529	485.574706	1324.226339	-217.568680	582.105527	1149.663344	39.042073	778.600803	928.999680	-43.464888	600.159683	1148.441113	-471.789971	789.400131	931.024436	-397.802990	-15.562980	1189.955235	-231.748873	151.943225	1193.788562	-370.458824	138.467690	1209.350223	-60.282124	179.741580	1150.118899	-330.824047	169.377605	1150.627728	-89.247054	10.461416	1232.218719	-177.183844	16.651697	1234.338536	-273.466820	66.148303	1084.040562	-32.976552	112.864970	1080.772712	-407.716895	193.042183	958.358086	-21.619518	270.658471	914.419817	-20.761447	315.064671	839.766322	-27.795735	296.095805	940.211274	-30.274805	382.388392	748.418936	-44.425992	364.314282	743.956234	-158.244601	275.101808	673.662469	-18.186810	233.654517	595.876692	-40.121317	160.727615	551.487620	-48.682049	258.924633	580.253719	-68.274116	71.983041	475.348249	-60.341680	101.547691	482.661746	-146.858364	-5.024770	493.208226	-109.277693	232.056884	314.128179	-97.352218	139.876506	339.935924	-34.361112	208.545379	986.344919	-407.928257	289.050826	952.361264	-402.141731	310.556417	980.279693	-390.348797	341.860557	880.915958	-399.271782	425.909708	784.104373	-372.898065	423.313067	754.243493	-267.800472	340.873483	374.415675	-392.636805	377.671953	402.353560	-320.387703	270.650520	349.163075	-357.605424	478.904406	291.006853	-411.781999	404.473465	658.924199	-403.139866	405.977276	574.218137	-388.252494	369.049817	494.554689	-395.173332	425.034774	572.814529	-354.170032	558.724162	318.883186	-339.804724	-135.984577	943.766520	-222.359541	26.030562	84.099094	-426.939628	17.506385	80.014081	-28.545629	
1752	8.7600	521.249099	1397.118632	-41.094895	535.673020	1406.420158	-418.092340	502.071016	1481.927331	-221.348401	485.498068	1324.541435	-216.882598	581.967210	1149.537518	39.050366	778.609926	929.153945	-43.348110	600.448446	1148.587498	-471.306850	789.443219	930.763076	-397.521983	-15.019639	1189.645949	-232.615149	153.136974	1193.319876	-370.666114	138.270508	1209.721108	-60.553217	180.291856	1148.949319	-331.203904	169.474032	1151.481297	-89.833298	10.525974	1232.187284	-177.968708	17.229461	1233.955808	-274.432069	66.679757	1084.928495	-32.987415	112.756070	1078.476994	-407.426331	195.372075	961.401570	-21.260816	273.824323	919.149624	-19.985328	319.591114	845.295595	-27.191365	298.790212	945.324871	-29.908742	388.667421	754.921667	-44.118305	370.362807	750.634837	-158.068100	280.706026	681.234214	-18.029193	238.303125	603.973769	-40.036157	164.761681	560.515803	-48.584601	263.315696	588.157175	-68.290589	75.225211	485.485057	-60.387365	104.553580	492.717869	-146.940884	-1.847665	503.848856	-109.288331	234.160294	323.413925	-97.355525	142.165949	349.783637	-34.301283	207.151168	981.580644	-408.557951	286.787302	945.547818	-402.846673	309.046148	973.008007	-391.276226	337.767290	872.991856	-399.819179	420.194216	775.192463	-373.128067	417.042477	745.360493	-268.400491	339.121071	365.421035	-392.779496	375.753759	393.268093	-320.251773	269.366502	340.920024	-357.569998	477.094938	280.846687	-411.824991	399.465642	649.882596	-403.332795	402.265682	565.302386	-388.869546	366.211854	485.069167	-395.206706	421.136884	563.811830	-354.116160	557.188897	307.978455	-339.902352	-135.968072	943.770969	-222.376449	26.032612	84.089121	-426.912750	17.500718	80.030777	-28.529020	
1753	8.7650	520.804008	1397.142448	-40.156363	536.018052	1406.631211	-417.416915	502.318221	1482.149113	-220.729611	485.562855	1324.995304	-215.950215	581.734475	1149.545189	39.281975	778.624304	929.296311	-43.265145	600.813260	1148.724389	-470.893141	789.473412	930.468107	-397.232173	-14.449822	1189.417119	-233.409403	154.322008	1192.988446	-370.786278	138.115369	1210.121561	-60.802859	180.837591	1147.705659	-331.688696	169.532510	1152.275645	-90.401848	10.642477	1232.284294	-178.883184	17.801497	1233.645704	-275.274934	67.162690	1085.912547	-33.005090	112.758437	1076.371975	-407.283846	197.605137	964.547379	-21.028725	276.978161	924.105676	-19.401296	324.045632	850.942129	-26.624365	301.387489	950.752033	-29.649776	394.801002	761.920338	-43.764050	373.452134	754.011274	-158.190490	286.410933	688.855076	-17.977423	243.104606	612.095525	-40.054052	169.263843	569.331158	-48.331088	267.103232	596.660647	-68.084538	78.824365	495.359909	-60.457453	107.442988	502.672087	-147.188216	1.528322	514.119006	-109.409853	236.897847	332.681925	-97.386995	144.994874	359.568366	-34.314371	205.675316	976.859411	-409.269164	284.372061	938.895819	-403.600126	307.318007	965.907155	-392.095505	333.531472	865.063699	-400.118732	414.648401	766.638302	-376.548432	410.556572	736.711621	-268.973499	336.977299	356.755725	-392.891203	373.850935	384.453770	-320.434299	267.676537	333.053420	-357.584785	474.719870	270.764103	-411.928725	394.097738	641.093039	-403.604827	397.977094	556.673600	-389.073868	362.992663	475.876226	-395.341332	416.886927	554.889882	-353.444743	555.143753	297.136537	-339.988045	-135.952889	943.781785	-222.377660	26.021775	84.087361	-426.931519	17.496225	80.002131	-28.538554	
1754	8.7700	520.406053	1397.246063	-39.099389	536.483738	1406.868134	-416.797181	502.591250	1482.440860	-220.091031	485.628325	1325.328481	-215.313685	581.539315	1149.597757	39.590213	778.655740	929.443143	-43.155886	601.257462	1148.904847	-470.447842	789.509006	930.134287	-396.922997	-13.831227	1189.302324	-234.137752	155.512224	1192.661568	-370.951170	137.868902	1210.657716	-61.124502	181.479010	1146.353395	-332.205346	169.577591	1153.204722	-90.895100	10.827576	1232.450398	-179.791101	18.466441	1233.339036	-276.370837	67.544706	1087.046797	-33.020656	112.701712	1074.401603	-407.117870	199.785678	967.927132	-20.738489	279.971709	929.201008	-18.790118	328.400623	856.963371	-26.090551	303.820717	956.225948	-29.481381	400.800228	769.163071	-43.399560	398.072776	769.012988	-164.779343	292.175233	696.449277	-17.922481	248.114996	620.160925	-39.994295	173.788208	578.098341	-48.317627	271.874528	604.517938	-68.165476	82.775560	504.989691	-60.479872	110.750896	512.273049	-147.453097	5.006357	524.120679	-109.702842	240.151881	342.023988	-97.361707	148.393951	369.165823	-34.248222	204.077075	972.322836	-410.148141	281.840707	932.435048	-404.328006	305.400341	958.940373	-392.950529	330.144777	858.508555	-402.627171	409.366704	760.919966	-378.139677	403.894664	728.386680	-269.510075	334.385513	348.455680	-393.076259	371.423958	376.080705	-320.569514	265.616362	325.637924	-357.645333	471.820940	260.871239	-411.982632	388.405244	632.478114	-403.901316	393.364576	548.137136	-389.205227	359.390714	466.996252	-395.466990	412.197131	546.857475	-353.832431	552.687651	286.214474	-340.138330	-135.948517	943.787157	-222.378822	26.034195	84.099981	-426.924291	17.482151	80.016939	-28.540046	
1755	8.7750	520.056749	1397.357760	-38.034121	537.000877	1407.033818	-416.068335	502.861784	1482.751508	-219.486692	485.744529	1325.583579	-214.527886	581.352389	1149.687733	39.926547	778.684161	929.631623	-43.071858	601.724376	1149.069367	-470.044555	789.550493	929.820338	-396.628393	-12.843599	1189.252637	-235.239152	156.682546	1192.229740	-371.178378	137.616344	1211.272423	-61.460145	182.148149	1144.989570	-332.784843	169.629358	1154.052519	-91.380224	10.505189	1232.531445	-180.966787	19.192995	1233.121451	-277.409211	67.985834	1088.388045	-32.961139	112.607910	1072.582686	-407.028780	201.875093	971.494122	-20.572090	282.798584	934.448835	-18.275301	332.882432	863.191565	-25.218629	306.124837	961.788007	-29.300987	406.670086	776.532495	-43.117929	396.009709	774.036056	-161.130392	298.015793	704.008464	-17.860673	253.276254	628.191350	-39.891230	178.570632	586.983562	-48.234270	276.760338	612.346016	-68.273785	86.970654	514.441426	-60.557030	118.600528	521.654355	-146.455167	9.374752	533.696801	-109.347951	244.079307	351.513081	-97.356548	152.489916	379.108457	-33.794683	202.343251	967.996371	-411.056826	279.120193	926.260309	-405.133431	303.380603	952.189149	-393.721501	325.553715	851.235777	-403.173246	401.744780	750.431398	-373.849230	397.096065	720.475473	-270.000801	331.475131	340.442861	-393.170983	368.593410	367.796925	-320.538885	263.109189	318.597458	-357.625075	468.430220	251.004872	-412.055026	382.512369	624.271393	-404.220667	388.436493	540.285952	-389.934984	355.483401	458.428972	-395.709685	407.111524	539.298990	-354.168766	549.704655	275.344127	-340.254832	-135.949134	943.797473	-222.380098	26.031388	84.096427	-426.925006	17.492408	80.018344	-28.545066	
